<?xml version="1.0" standalone="no"?>
<!DOCTYPE svg PUBLIC "-//W3C//DTD SVG 20010904//EN"
 "http://www.w3.org/TR/2001/REC-SVG-20010904/DTD/svg10.dtd">
<svg version="1.0" xmlns="http://www.w3.org/2000/svg"
 width="1210.000000pt" height="642.000000pt" viewBox="0 0 1210.000000 642.000000"
 preserveAspectRatio="xMidYMid meet">
<metadata>
Created by potrace 1.16, written by Peter Selinger 2001-2019
</metadata>
<g transform="translate(0.000000,642.000000) scale(0.100000,-0.100000)"
fill="#000000" stroke="none">
<path d="M1958 5888 l-3 -73 -407 -3 c-255 -1 -408 -6 -408 -12 0 -16 44 -22
147 -19 54 2 227 3 386 1 l287 -2 0 -130 0 -130 -195 0 -195 0 -2 -407 -3
-408 -197 -3 c-167 -2 -198 -5 -198 -17 0 -13 30 -15 200 -15 l200 0 0 -400 0
-400 188 -2 187 -3 0 -115 0 -115 -387 -3 c-336 -2 -388 -4 -388 -17 0 -13 51
-15 390 -15 l390 0 0 -85 0 -86 398 3 c395 3 397 3 445 27 65 32 121 105 147
190 19 63 23 68 46 63 13 -2 31 2 40 9 12 10 58 12 192 11 98 -2 182 1 189 6
8 5 13 43 15 107 l3 100 243 3 242 2 0 -65 0 -65 393 0 c373 0 394 1 437 21
87 39 149 125 174 240 5 22 10 25 34 21 18 -2 35 2 45 12 14 14 60 16 381 16
319 0 366 2 366 15 0 13 -31 15 -220 15 l-220 0 -2 167 -3 168 -75 17 c-41 10
-241 56 -445 104 -203 47 -371 87 -373 89 -5 5 20 11 486 116 l412 93 0 193 0
193 225 0 c193 0 225 2 225 15 0 13 -48 15 -373 15 -361 0 -373 1 -385 20 -14
22 -42 26 -60 8 -12 -12 -11 -15 -31 57 -25 93 -110 180 -201 205 -20 6 -196
10 -412 10 l-378 0 0 -85 0 -85 -242 2 -243 3 -1 90 0 90 -182 3 c-173 2 -182
3 -193 23 -9 17 -17 20 -45 16 -32 -5 -34 -4 -45 36 -25 95 -88 174 -168 211
-44 20 -63 21 -438 24 l-392 3 -3 -73z m804 32 c20 -6 59 -31 86 -55 154 -139
120 -417 -62 -501 -51 -24 -53 -24 -423 -24 l-373 0 0 295 0 295 368 0 c218 0
382 -4 404 -10z m638 -395 l0 -95 255 0 256 0 -3 -107 -3 -108 -252 -3 -253
-2 0 -149 c0 -134 2 -150 18 -155 9 -3 195 -46 412 -96 419 -96 433 -100 428
-105 -2 -2 -185 -44 -408 -94 -223 -50 -415 -93 -427 -96 -23 -5 -23 -8 -23
-150 l0 -145 255 0 255 0 0 -120 0 -120 -255 0 -254 0 -3 -107 -3 -108 -169
-3 -168 -2 -25 26 c-14 15 -30 23 -38 20 -8 -3 -22 -9 -30 -12 -11 -4 -15 0
-15 17 0 36 -47 129 -83 167 -18 19 -54 46 -82 60 l-50 27 -392 3 -393 3 0
-85 0 -84 -172 -4 c-95 -2 -176 -2 -180 0 -5 2 -8 361 -8 798 l0 794 185 0
185 0 0 -85 0 -86 403 3 c365 3 405 5 438 21 79 39 147 135 164 229 6 34 9 36
27 27 15 -8 25 -7 41 5 18 12 57 15 195 15 l172 1 0 -95z m1335 56 c56 -25
119 -97 140 -160 24 -73 17 -199 -14 -259 -32 -63 -95 -120 -150 -134 -34 -10
-142 -12 -408 -10 l-363 2 0 290 0 290 378 0 c344 0 381 -2 417 -19z m535
-466 c0 -183 0 -185 -22 -190 -13 -3 -113 -25 -223 -50 -110 -24 -311 -69
-448 -100 l-248 -55 -112 25 c-61 14 -265 60 -452 103 l-340 79 -3 126 -3 127
148 0 c81 0 192 3 246 7 l97 6 0 -102 0 -102 398 3 397 3 49 25 c81 42 136
120 160 232 5 24 10 27 35 22 19 -4 33 -1 42 10 11 12 39 15 147 16 l132 0 0
-185z m-468 -530 c252 -58 460 -105 463 -105 3 0 5 -72 5 -160 l0 -160 -130 0
c-118 0 -132 2 -151 21 -13 13 -27 18 -37 14 -32 -12 -35 -10 -43 28 -20 88
-88 174 -168 211 -44 20 -63 21 -438 24 l-393 3 0 -106 0 -105 -245 0 -245 0
0 115 c0 99 2 116 18 123 9 5 152 40 317 77 165 37 354 80 420 96 66 15 131
28 145 28 14 1 231 -46 482 -104z m-67 -176 c59 -28 120 -97 141 -161 26 -80
16 -200 -23 -269 -33 -60 -96 -114 -146 -126 -17 -4 -197 -7 -399 -5 l-368 3
0 289 0 290 375 0 c361 0 377 -1 420 -21z m-1959 -393 c167 -78 208 -346 74
-485 -76 -78 -61 -76 -470 -79 -201 -2 -375 0 -387 3 l-22 5 4 288 c3 158 5
288 5 290 0 1 168 2 373 2 370 0 372 0 423 -24z"/>
<path d="M7510 5710 l0 -210 135 0 135 0 0 -50 0 -50 -405 0 c-368 0 -440 -4
-389 -24 9 -3 191 -6 405 -6 l389 0 0 -50 0 -50 -135 0 -135 0 0 -291 c0 -266
-2 -293 -17 -305 -14 -10 -78 -13 -280 -14 -147 0 -263 -4 -263 -9 0 -10 412
-26 473 -18 32 4 47 1 64 -13 22 -18 23 -21 25 -311 l3 -294 133 -3 133 -3 -3
-52 -3 -52 -422 -3 c-271 -1 -423 -6 -423 -12 0 -6 151 -10 425 -10 l425 0 0
-55 0 -55 -135 0 -135 0 0 -210 0 -210 1513 2 1512 3 3 323 2 322 105 0 c58 0
107 -4 110 -10 3 -5 17 -10 30 -10 13 0 27 5 30 10 4 6 63 10 146 10 86 0 139
4 139 10 0 6 -52 10 -136 10 -119 0 -139 2 -150 18 -11 14 -13 134 -14 615 l0
597 150 0 c127 0 150 2 150 15 0 13 -23 15 -150 15 l-150 0 0 320 0 320 -1645
0 -1645 0 0 -210z m3258 -122 l2 -308 -106 0 c-58 0 -115 5 -126 11 -14 8 -23
8 -31 0 -15 -15 -189 -14 -222 1 -19 9 -28 9 -37 0 -7 -7 -32 -12 -56 -12 -35
0 -48 5 -64 26 -17 21 -27 25 -65 23 -41 -3 -46 -1 -60 29 -22 46 -104 116
-151 130 -26 8 -124 12 -286 12 l-246 0 0 -50 0 -50 -351 0 -351 0 -35 30
c-36 32 -48 35 -85 21 -22 -8 -26 -5 -48 41 -24 50 -55 79 -120 114 -31 17
-64 19 -292 22 l-258 3 0 -50 0 -51 -125 0 -125 0 0 178 c0 98 2 181 4 183 3
2 730 4 1618 4 l1613 0 3 -307z m-2467 0 c146 -50 194 -226 93 -338 -64 -71
-79 -74 -344 -74 l-235 -1 -3 213 -2 212 228 0 c148 0 241 -4 263 -12z m1542
-124 c52 -18 99 -61 129 -118 48 -93 0 -219 -104 -270 -51 -26 -54 -26 -285
-26 l-233 0 0 215 0 215 223 0 c177 0 233 -3 270 -16z m-860 -93 l337 -1 0
-110 0 -110 -192 -2 -193 -3 -3 -101 -3 -100 48 -25 c127 -66 503 -275 503
-279 0 -3 -123 -73 -273 -156 l-272 -150 -3 -102 -3 -102 196 0 195 0 0 -115
0 -115 -353 0 -353 0 -22 25 c-26 30 -59 39 -94 26 -23 -9 -27 -7 -32 13 -11
43 -63 101 -117 131 l-54 30 -257 3 -258 3 0 -45 0 -46 -125 0 -125 0 0 280
c0 232 3 285 15 304 13 20 13 25 0 42 -12 16 -14 69 -15 297 l0 277 125 0 125
0 0 -45 0 -45 253 0 c223 0 257 3 293 19 56 26 107 73 128 119 17 39 19 39 62
34 39 -4 47 -1 71 25 16 17 35 29 43 28 8 -2 167 -4 353 -4z m1256 -135 c8 -9
11 -44 9 -96 l-3 -82 -215 -120 c-471 -261 -508 -280 -533 -271 -13 4 -139 71
-280 148 l-257 140 0 83 0 82 180 0 180 0 0 -51 0 -51 253 4 c230 3 256 5 297
25 54 25 117 86 137 131 12 29 16 31 34 21 28 -15 64 -4 86 26 14 19 27 24 59
25 24 0 47 -6 53 -14z m259 2 c9 -9 12 -159 12 -615 l0 -603 -97 0 c-129 0
-133 4 -133 124 l0 92 -57 30 c-32 17 -103 56 -158 86 -55 31 -131 72 -170 93
-294 159 -345 188 -345 194 0 5 125 77 278 161 152 85 316 175 365 202 l87 49
0 88 c0 54 4 91 12 99 8 8 46 12 103 12 57 0 95 -4 103 -12z m272 -585 c-1
-481 -3 -601 -14 -615 -11 -15 -30 -18 -115 -18 l-101 0 0 603 c0 456 3 606
12 615 8 8 48 12 115 12 l103 0 0 -597z m-885 -231 l360 -197 3 -80 c4 -101
-8 -125 -58 -125 -29 0 -41 6 -59 31 -21 29 -27 31 -68 26 -42 -4 -44 -3 -63
33 -25 50 -99 114 -148 128 -26 8 -126 12 -286 12 l-246 0 0 -50 0 -50 -180 0
-180 0 0 88 1 87 32 16 c18 8 133 71 257 140 225 126 246 137 265 138 6 1 172
-88 370 -197z m-25 -216 c85 -45 130 -114 130 -200 0 -74 -44 -140 -120 -178
l-54 -28 -233 0 -233 0 0 216 0 216 238 -4 c208 -3 241 -5 272 -22z m-1533
-128 c166 -83 163 -297 -5 -380 -44 -22 -60 -23 -279 -26 l-233 -4 0 216 0
216 236 0 c225 0 239 -1 281 -22z m1908 -88 c3 -5 17 -10 30 -10 13 0 27 5 30
10 3 6 52 10 111 10 l104 0 -2 -310 -3 -309 -170 -5 c-93 -3 -763 -3 -1488 1
l-1317 6 2 181 3 181 123 3 122 3 0 -51 0 -50 243 0 c136 0 258 5 279 10 58
16 120 69 149 127 20 38 30 49 40 42 29 -18 71 -9 99 21 l28 30 351 0 351 0 0
-56 0 -55 253 3 c232 3 256 5 298 24 53 25 116 86 136 132 12 29 16 31 34 21
28 -14 65 -4 91 26 16 18 32 25 59 25 21 0 41 -4 44 -10z"/>
<path d="M5844 5392 c-22 -15 -36 -54 -30 -88 8 -39 16 -45 71 -55 22 -4 51
-11 65 -15 24 -7 24 -6 8 12 -12 14 -15 31 -11 67 4 37 2 52 -12 67 -18 20
-69 27 -91 12z"/>
<path d="M11243 5355 c-23 -10 -35 -23 -41 -47 -17 -66 16 -120 73 -116 17 1
45 -6 63 -15 27 -15 32 -15 32 -3 0 8 -6 19 -14 23 -12 7 -13 16 -4 49 15 55
-2 99 -44 113 -17 6 -31 11 -32 11 -1 -1 -15 -7 -33 -15z"/>
<path d="M5834 4222 c-22 -14 -36 -55 -30 -85 9 -43 24 -57 63 -57 18 0 44 -7
57 -16 27 -17 45 -4 21 16 -10 8 -12 25 -8 61 5 39 2 53 -12 69 -18 20 -69 27
-91 12z"/>
<path d="M11264 4112 c-37 -5 -59 -40 -59 -89 0 -54 30 -85 79 -82 17 1 43 -4
59 -11 32 -15 50 -4 24 15 -16 11 -16 18 -5 59 11 41 10 48 -8 73 -21 28 -54
41 -90 35z"/>
<path d="M3130 3035 l0 -95 48 0 c26 0 57 7 69 15 31 22 46 75 33 111 -20 52
-38 64 -97 64 l-53 0 0 -95z"/>
<path d="M3730 3080 c-8 -5 -25 -7 -37 -3 -23 5 -23 4 -23 -90 0 -72 3 -96 14
-100 19 -8 26 1 26 35 0 24 3 27 16 20 9 -5 26 -7 36 -4 39 10 51 99 18 132
-22 22 -29 24 -50 10z"/>
<path d="M4143 3078 c-43 -21 -53 -99 -16 -129 21 -18 70 -15 93 6 31 28 27
88 -6 114 -30 23 -39 24 -71 9z"/>
<path d="M4330 3080 c-8 -5 -25 -7 -37 -3 -23 5 -23 4 -23 -91 0 -89 1 -96 20
-96 16 0 20 7 20 30 0 27 2 30 19 20 40 -21 71 12 71 74 0 23 -7 43 -20 56
-22 22 -29 24 -50 10z"/>
<path d="M8707 2974 c-6 -83 -2 -104 19 -104 9 0 14 11 14 30 0 28 2 30 22 19
19 -10 25 -8 45 15 28 33 29 66 4 97 -16 20 -22 22 -44 12 -17 -8 -29 -9 -32
-3 -15 24 -23 5 -28 -66z"/>
<path d="M9277 3044 c-4 -4 -7 -45 -7 -91 0 -75 2 -84 18 -81 11 3 16 12 14
27 -2 20 1 22 23 17 55 -14 90 78 45 119 -16 15 -25 16 -44 7 -15 -6 -27 -7
-33 -1 -5 5 -12 6 -16 3z"/>
<path d="M2556 2630 l-7 -60 -399 0 c-260 0 -400 4 -400 10 0 6 -11 10 -24 10
-14 0 -28 -4 -31 -10 -4 -6 -120 -10 -316 -10 -170 0 -309 -4 -309 -9 0 -27
37 -31 331 -33 l304 -3 3 -292 2 -293 -150 0 c-88 0 -150 -4 -150 -10 0 -5 43
-87 96 -182 169 -304 162 -290 148 -318 -16 -30 -10 -56 22 -91 24 -25 24 -27
24 -245 0 -158 3 -223 12 -232 9 -9 83 -12 270 -12 l259 0 -3 -112 -3 -113
-605 -5 c-529 -4 -605 -7 -605 -20 0 -13 75 -15 603 -18 390 -1 602 -6 602
-12 0 -12 43 -13 55 -1 6 5 64 10 130 12 l120 4 5 -60 5 -60 257 -3 c253 -2
257 -2 310 22 29 13 66 36 82 51 30 29 76 118 76 148 0 19 15 23 25 7 10 -17
61 -11 88 10 24 19 40 20 361 20 l336 0 2 -32 c1 -18 2 -40 4 -48 1 -8 2 -21
3 -27 1 -10 62 -13 269 -13 l267 0 52 30 c63 36 119 106 128 160 7 41 19 58
30 40 11 -17 70 -11 93 10 23 22 115 29 127 10 3 -5 17 -10 31 -10 13 0 24 5
24 10 0 6 122 10 345 10 300 0 345 2 345 15 0 13 -38 15 -272 16 -150 1 -307
4 -348 8 l-75 6 -5 113 -5 113 -195 116 c-107 64 -222 132 -255 151 -79 46
-103 60 -213 125 -92 55 -93 56 -70 70 36 23 600 362 628 377 24 14 100 60
110 68 3 2 7 52 10 110 l5 107 344 5 c259 4 345 8 348 17 4 10 -76 13 -349 17
-194 2 -362 5 -373 6 -11 1 -39 -1 -63 -5 -40 -7 -46 -5 -77 25 -33 32 -51 35
-96 16 -11 -5 -21 7 -38 48 -28 68 -91 128 -157 150 -42 14 -89 16 -300 14
l-249 -3 -3 -52 -3 -53 -345 0 c-191 0 -344 4 -344 9 0 5 -14 14 -31 22 -24 9
-39 10 -60 2 -33 -13 -37 -9 -58 59 -7 20 -33 56 -60 81 -75 70 -110 77 -397
77 l-241 0 -7 -60z m559 3 c42 -22 80 -59 109 -107 23 -36 32 -129 17 -182
-15 -55 -73 -120 -134 -150 -49 -23 -57 -24 -284 -24 l-233 0 0 239 0 240 28
4 c15 3 124 4 242 3 200 -1 218 -3 255 -23z m-561 -190 c10 -139 22 -128 -144
-131 -85 -1 -149 -7 -157 -14 -10 -8 -13 -143 -13 -709 l0 -699 -250 0 -250 0
0 219 c0 208 1 220 19 226 30 9 44 62 26 97 -16 33 -24 17 158 334 48 83 87
156 87 163 0 8 -43 11 -145 11 l-145 0 0 288 c0 159 3 292 7 295 3 4 185 7
404 7 l397 0 6 -87z m2079 63 c67 -24 107 -58 138 -118 62 -123 19 -262 -101
-323 -48 -25 -54 -25 -290 -25 l-240 0 0 240 0 240 228 0 c164 -1 237 -5 265
-14z m-533 -221 l0 -115 -211 0 c-188 0 -210 -2 -205 -16 3 -9 6 -65 6 -125
l0 -109 48 -30 c26 -16 154 -91 284 -167 131 -76 238 -141 238 -144 0 -7 -117
-79 -127 -79 -4 0 -14 -6 -22 -14 -9 -8 -35 -25 -59 -38 -23 -13 -114 -66
-202 -118 l-160 -95 0 -122 0 -123 195 0 195 0 0 -120 0 -120 -336 0 -336 0
-20 25 c-21 27 -64 33 -98 15 -17 -9 -21 -6 -26 17 -18 76 -66 133 -144 174
-44 23 -51 24 -310 24 l-265 0 -3 -57 -3 -58 -129 0 -130 0 0 690 0 691 138
-3 137 -3 3 -62 3 -63 255 0 c249 0 257 1 308 24 62 28 131 102 146 155 13 48
25 66 34 52 12 -19 71 -13 91 9 17 19 31 20 362 20 l343 0 0 -115z m954 -36
c5 -5 10 -50 10 -101 l1 -92 -280 -168 c-154 -93 -326 -196 -383 -229 l-102
-61 -48 30 c-58 36 -478 285 -509 301 -22 11 -23 18 -23 112 l0 99 188 -2 187
-3 3 -45 c1 -25 5 -55 7 -67 l5 -23 253 0 253 0 60 29 c74 36 106 70 136 146
l24 59 45 -3 c33 -2 52 3 69 17 25 20 83 21 104 1z m-3100 -396 c-15 -27 -46
-79 -69 -118 -23 -38 -60 -105 -84 -147 -52 -96 -72 -121 -91 -113 -8 3 -35
42 -60 87 -25 45 -59 109 -77 141 -18 32 -42 75 -54 95 -12 20 -31 52 -41 70
l-20 32 262 0 261 0 -27 -47z m2966 -658 c74 -44 138 -84 142 -90 4 -5 8 -48
8 -95 0 -47 -4 -90 -8 -96 -4 -6 -29 -14 -56 -17 -42 -6 -52 -4 -79 19 -30 25
-51 27 -99 9 -13 -5 -19 0 -23 22 -16 73 -86 153 -158 180 -21 8 -120 12 -293
12 l-262 1 -6 -22 c-3 -13 -6 -38 -6 -55 l0 -33 -180 0 -180 0 0 83 c0 45 4
88 9 95 4 7 135 89 290 181 l282 169 242 -142 c133 -78 303 -178 377 -221z
m-287 -105 c128 -48 184 -196 123 -325 -28 -61 -56 -87 -119 -114 -45 -19 -68
-21 -283 -21 l-234 0 0 240 0 240 230 0 c205 0 235 -2 283 -20z m-1566 -129
c91 -18 173 -126 173 -228 0 -92 -57 -175 -151 -223 -35 -18 -60 -20 -274 -20
l-235 0 0 240 0 240 223 0 c122 -1 241 -5 264 -9z m-527 -226 l0 -115 -130 0
-130 0 0 115 0 115 130 0 130 0 0 -115z"/>
<path d="M740 2566 l0 -96 50 0 c68 0 100 30 100 92 -1 65 -25 90 -94 96 l-56
4 0 -96z"/>
<path d="M7380 2435 l0 -155 270 0 270 0 0 -55 0 -55 -395 0 c-347 0 -399 2
-420 16 -23 15 -27 15 -49 0 -20 -13 -63 -16 -235 -18 -286 -4 -283 -22 3 -26
165 -2 216 -5 225 -16 8 -9 10 -109 9 -337 l-3 -324 -227 -3 c-141 -1 -228 -6
-228 -12 0 -6 86 -10 230 -10 l230 0 0 -425 0 -425 430 0 430 0 0 -55 0 -55
-270 0 -270 0 0 -153 0 -154 1022 -6 c1275 -9 2401 -9 2422 -1 14 5 16 38 16
269 0 241 1 263 18 278 16 15 47 17 231 17 166 0 212 3 209 13 -4 9 -57 13
-212 15 -168 2 -211 5 -223 17 -19 19 -47 19 -63 0 -15 -18 -69 -19 -92 -1
-16 12 -18 34 -18 193 0 145 -3 183 -14 192 -14 12 -64 29 -476 161 l-195 63
85 28 c47 15 184 57 305 93 121 37 236 74 255 84 l35 17 3 179 c2 150 5 183
19 198 20 22 81 24 89 3 8 -19 48 -19 68 0 12 12 51 15 225 15 181 0 211 2
211 15 0 13 -30 15 -212 15 -161 1 -217 4 -230 14 -16 12 -18 38 -18 280 l0
266 -1730 0 -1730 0 0 -155z m3430 -123 c0 -187 -3 -261 -12 -270 -15 -15 -84
-16 -93 -2 -8 13 -62 13 -70 0 -4 -6 -56 -10 -124 -10 -96 0 -121 3 -132 16
-9 11 -23 14 -45 11 -28 -5 -36 0 -82 52 -91 104 -217 171 -359 191 -86 12
-253 14 -253 3 0 -5 11 -30 25 -57 14 -27 25 -55 25 -63 0 -11 -99 -13 -550
-13 l-550 0 -6 28 c-16 77 -60 141 -129 187 -82 54 -142 65 -352 65 l-183 0 0
-70 0 -70 -260 0 -260 0 0 125 0 124 93 3 c50 2 818 4 1705 6 l1612 2 0 -258z
m-2501 108 c99 -17 202 -91 235 -172 20 -46 21 -148 2 -191 -21 -50 -79 -110
-129 -135 -68 -34 -139 -43 -313 -40 l-159 3 -1 265 c0 146 1 268 3 273 6 11
288 8 362 -3z m1679 -171 c118 -40 213 -108 271 -193 l29 -41 -33 -51 c-58
-91 -160 -157 -297 -193 -88 -23 -268 -38 -268 -22 0 6 12 41 28 78 24 62 27
79 26 188 0 106 -4 127 -27 184 -15 36 -27 69 -27 74 0 19 229 0 298 -24z
m-2068 -164 l0 -55 -270 0 -270 0 0 -263 c0 -332 12 -309 -161 -305 l-124 3
-3 319 c-2 286 -1 321 14 338 16 17 41 18 416 18 l398 0 0 -55z m1791 -10 c4
-33 4 -88 2 -122 l-6 -63 -229 0 -229 0 3 -142 3 -142 45 -17 c25 -10 176 -60
335 -111 l290 -94 -115 -37 c-63 -20 -189 -59 -280 -86 -238 -72 -281 -86
-281 -94 1 -4 1 -72 1 -152 l0 -145 229 0 228 0 5 -62 c3 -35 2 -90 -1 -123
l-6 -60 -556 -3 -556 -2 -17 61 c-22 80 -94 155 -181 189 -56 22 -74 24 -265
24 l-205 1 -3 -68 -3 -67 -259 0 -260 0 0 320 c0 307 1 321 20 340 11 11 20
25 20 30 0 6 -9 18 -20 27 -19 17 -20 30 -20 270 l0 253 260 0 260 0 0 -71 0
-71 213 4 c207 3 213 4 272 31 99 46 163 121 179 210 l7 37 557 -2 557 -3 6
-60z m933 -94 c14 -16 16 -41 14 -195 l-3 -178 -275 -84 c-151 -46 -306 -94
-343 -106 l-69 -21 -96 31 c-53 17 -198 62 -322 102 -124 39 -235 75 -248 80
-22 10 -23 13 -20 127 l3 118 203 3 c230 3 221 7 177 -80 -14 -27 -23 -54 -19
-59 7 -12 77 -11 184 1 191 22 299 69 406 178 63 63 77 72 108 72 23 0 39 5
42 15 5 12 28 15 124 15 101 0 119 -2 134 -19z m-3283 -563 c17 -21 18 -45 19
-355 l0 -333 270 0 270 0 0 -55 0 -55 -415 0 -415 0 0 403 c0 222 3 407 7 410
3 4 60 7 126 7 111 0 120 -1 138 -22z m2641 -58 c13 -5 131 -43 263 -85 132
-42 275 -88 318 -101 l77 -26 0 -176 c0 -223 8 -212 -147 -212 -88 0 -118 3
-129 15 -9 8 -32 15 -52 15 -31 0 -41 7 -67 41 -60 81 -174 151 -300 184 -68
18 -272 37 -304 28 -27 -7 -26 -12 4 -64 46 -82 52 -79 -180 -79 l-206 0 3
132 3 132 305 92 c168 52 316 98 330 103 34 12 55 13 82 1z m-47 -370 c90 -23
187 -75 247 -135 76 -76 87 -104 59 -149 -59 -95 -199 -185 -329 -211 -96 -19
-242 -29 -242 -16 0 5 12 43 28 83 24 64 27 87 27 188 0 103 -3 122 -28 183
-15 37 -26 71 -23 75 6 10 202 -3 261 -18z m-1593 -129 c64 -20 131 -72 165
-131 29 -47 33 -63 33 -122 0 -111 -54 -189 -169 -246 -55 -27 -59 -27 -251
-27 l-195 0 -3 250 c-1 138 0 261 3 274 l6 24 187 -6 c103 -3 204 -10 224 -16z
m2283 -147 c22 -14 27 -14 56 0 38 19 80 21 97 4 9 -9 12 -83 12 -270 l0 -258
-1702 2 -1703 3 -3 128 -3 127 261 0 260 0 0 -70 0 -70 195 0 c166 0 204 3
249 19 113 39 193 120 218 219 l10 42 549 0 c450 0 549 -2 549 -13 0 -8 -11
-36 -25 -63 -14 -27 -25 -52 -25 -56 0 -14 223 -8 295 7 118 25 208 75 296
164 68 69 80 77 107 73 19 -2 34 2 43 12 20 22 229 23 264 0z"/>
<path d="M5903 2385 c-32 -23 -47 -77 -33 -120 14 -41 35 -55 87 -55 21 0 47
-7 57 -15 25 -19 36 -19 36 0 0 8 -9 19 -21 26 -15 8 -18 14 -10 22 6 6 11 35
11 63 0 45 -4 56 -26 73 -31 25 -71 27 -101 6z"/>
<path d="M11414 2090 c-28 -11 -48 -61 -39 -99 8 -36 16 -42 70 -52 22 -4 51
-11 65 -15 24 -7 24 -6 9 12 -13 14 -16 32 -12 69 4 40 1 53 -13 66 -25 22
-55 29 -80 19z"/>
<path d="M5904 978 c-28 -13 -44 -49 -44 -98 0 -53 27 -80 80 -80 23 0 52 -7
66 -16 33 -22 56 -4 25 18 -18 13 -20 19 -11 42 35 94 -34 174 -116 134z"/>
<path d="M11401 837 c-40 -20 -51 -82 -22 -126 5 -8 29 -17 52 -22 24 -4 55
-11 69 -15 24 -7 24 -6 8 12 -13 15 -16 30 -11 56 8 52 -2 83 -32 96 -32 15
-34 15 -64 -1z"/>
</g>
</svg>
